<svg xmlns="http://www.w3.org/2000/svg" viewBox="0 0 32 32">
  <defs>
    <linearGradient id="grad" x1="0%" y1="0%" x2="100%" y2="100%">
      <stop offset="0%" style="stop-color:#f59e0b;stop-opacity:1" />
      <stop offset="100%" style="stop-color:#f97316;stop-opacity:1" />
    </linearGradient>
  </defs>
  <rect width="32" height="32" rx="8" fill="url(#grad)"/>
  <path d="M16 6c-1.5 0-2.7 1.2-2.7 2.7v8c0 1.5 1.2 2.7 2.7 2.7s2.7-1.2 2.7-2.7v-8c0-1.5-1.2-2.7-2.7-2.7zm4.5 10.7c0 2.5-2 4.5-4.5 4.5s-4.5-2-4.5-4.5H9c0 3.4 2.6 6.2 6 6.6V27h2v-3.7c3.4-.4 6-3.2 6-6.6h-2.5z" fill="white"/>
</svg>
